<?xml version="1.0" encoding="UTF-8" standalone="no"?>
<!DOCTYPE svg PUBLIC "-//W3C//DTD SVG 1.1//EN" "http://www.w3.org/Graphics/SVG/1.1/DTD/svg11.dtd">
<svg width="100%" height="100%" viewBox="0 0 834 834" version="1.1" xmlns="http://www.w3.org/2000/svg" xmlns:xlink="http://www.w3.org/1999/xlink" xml:space="preserve" xmlns:serif="http://www.serif.com/" style="fill-rule:evenodd;clip-rule:evenodd;stroke-linejoin:round;stroke-miterlimit:2;">
    <g transform="matrix(0.740676,0,0,0.740676,-306.938,-212.578)">
        <g transform="matrix(12.5011,0,0,-12.5011,351.897,674.538)">
            <path d="M39,5L61,5C62.1,5 63,5.9 63,7L63,8C63,12.63 60.56,16.69 56.91,18.99C57.6,20.17 58,21.54 58,23C58,27.41 54.41,31 50,31C45.59,31 42,27.41 42,23C42,21.54 42.4,20.17 43.08,18.99C39.43,16.69 37,12.63 37,8L37,7C37,5.9 37.89,5 39,5ZM50,27C52.2,27 54,25.21 54,23C54,20.8 52.2,19 50,19C47.79,19 46,20.8 46,23C46,25.21 47.79,27 50,27ZM46.02,16.07C47.19,15.39 48.55,15 50,15C51.45,15 52.8,15.39 53.98,16.07C56.66,14.74 58.6,12.11 58.94,9L41.05,9C41.4,12.11 43.33,14.74 46.02,16.07Z" style="fill:white;fill-rule:nonzero;"/>
        </g>
        <g transform="matrix(12.5011,0,0,-12.5011,351.897,674.538)">
            <path d="M88.91,18.99C89.6,20.17 90,21.54 90,23C90,27.41 86.41,31 82,31C77.59,31 74,27.41 74,23C74,21.54 74.4,20.17 75.08,18.99C71.43,16.69 69,12.63 69,8L69,7C69,5.9 69.89,5 71,5L93,5C94.1,5 95,5.9 95,7L95,8C95,12.63 92.56,16.69 88.91,18.99ZM82,27C84.2,27 86,25.21 86,23C86,20.8 84.2,19 82,19C79.79,19 78,20.8 78,23C78,25.21 79.79,27 82,27ZM73.05,9C73.4,12.11 75.33,14.74 78.02,16.07C79.19,15.39 80.55,15 82,15C83.45,15 84.8,15.39 85.98,16.07C88.66,14.74 90.6,12.11 90.94,9L73.05,9Z" style="fill:white;fill-rule:nonzero;"/>
        </g>
        <g transform="matrix(12.5011,0,0,-12.5011,351.897,674.538)">
            <path d="M7,5L29,5C30.1,5 31,5.9 31,7L31,8C31,12.63 28.56,16.69 24.91,18.99C25.6,20.17 26,21.54 26,23C26,27.41 22.41,31 18,31C13.59,31 10,27.41 10,23C10,21.54 10.4,20.17 11.08,18.99C7.43,16.69 5,12.63 5,8L5,7C5,5.9 5.89,5 7,5ZM18,27C20.2,27 22,25.21 22,23C22,20.8 20.2,19 18,19C15.79,19 14,20.8 14,23C14,25.21 15.79,27 18,27ZM14.02,16.07C15.19,15.39 16.55,15 18,15C19.45,15 20.8,15.39 21.98,16.07C24.66,14.74 26.6,12.11 26.94,9L9.05,9C9.4,12.11 11.33,14.74 14.02,16.07Z" style="fill:white;fill-rule:nonzero;"/>
        </g>
        <g transform="matrix(12.5011,0,0,-12.5011,351.897,1874.64)">
            <path d="M73,95C69.14,95 66,91.86 66,88L66,67C66,58.18 58.82,51 50,51C41.17,51 34,58.18 34,67L34,88C34,91.86 30.86,95 27,95C23.14,95 20,91.86 20,88L20,67C20,50.46 33.45,37 50,37C66.54,37 80,50.46 80,67L80,88C80,91.86 76.86,95 73,95ZM24,88C24,89.66 25.34,91 27,91C28.65,91 30,89.66 30,88L30,85L24,85L24,88ZM76,67C76,52.67 64.33,41 50,41C35.66,41 24,52.67 24,67L24,81L30,81L30,67C30,55.97 38.97,47 50,47C61.02,47 70,55.97 70,67L70,81L76,81L76,67ZM76,85L70,85L70,88C70,89.66 71.34,91 73,91C74.65,91 76,89.66 76,88L76,85Z" style="fill:white;fill-rule:nonzero;"/>
        </g>
        <g transform="matrix(12.5011,0,0,-12.5011,351.897,1487.11)">
            <path d="M50,64C48.9,64 48,63.1 48,62L48,43.83L45.41,46.42C44.63,47.2 43.36,47.2 42.58,46.42C41.8,45.64 41.8,44.37 42.58,43.59L48.58,37.59C48.97,37.2 49.49,37 50,37C50.51,37 51.02,37.2 51.41,37.59L57.41,43.59C58.19,44.37 58.19,45.64 57.41,46.42C56.63,47.2 55.36,47.2 54.58,46.42L52,43.83L52,62C52,63.11 51.1,64 50,64Z" style="fill:white;fill-rule:nonzero;"/>
        </g>
        <g transform="matrix(12.5011,0,0,-12.5011,351.897,1487.11)">
            <path d="M93,64C91.9,64 91,63.1 91,62L91,41L88,41C86.9,41 86,40.1 86,39C86,37.9 86.9,37 88,37L93,37C94.1,37 95,37.9 95,39L95,62C95,63.11 94.1,64 93,64Z" style="fill:white;fill-rule:nonzero;"/>
        </g>
        <g transform="matrix(12.5011,0,0,-12.5011,351.897,1487.11)">
            <path d="M12,41L9,41L9,62C9,63.1 8.1,64 7,64C5.9,64 5,63.1 5,62L5,39C5,37.9 5.9,37 7,37L12,37C13.1,37 14,37.9 14,39C14,40.1 13.1,41 12,41Z" style="fill:white;fill-rule:nonzero;"/>
        </g>
    </g>
</svg>
