<?xml version="1.0" encoding="UTF-8" standalone="no"?>
<!DOCTYPE svg PUBLIC "-//W3C//DTD SVG 1.1//EN" "http://www.w3.org/Graphics/SVG/1.1/DTD/svg11.dtd">
<svg width="100%" height="100%" viewBox="0 0 834 834" version="1.1" xmlns="http://www.w3.org/2000/svg" xmlns:xlink="http://www.w3.org/1999/xlink" xml:space="preserve" xmlns:serif="http://www.serif.com/" style="fill-rule:evenodd;clip-rule:evenodd;stroke-linejoin:round;stroke-miterlimit:2;">
    <g transform="matrix(0.674783,0,0,0.674783,-1584.04,-1357.83)">
        <g transform="matrix(19.3866,0,0,-19.3866,1996.58,4026.53)">
            <path d="M42.1,61C42.1,60.902 42.09,60.804 42.071,60.707C42.052,60.611 42.024,60.517 41.986,60.426C41.948,60.335 41.902,60.249 41.847,60.167C41.792,60.085 41.73,60.009 41.661,59.939C41.591,59.87 41.515,59.808 41.433,59.753C41.351,59.698 41.265,59.652 41.174,59.614C41.083,59.576 40.989,59.548 40.893,59.529C40.796,59.51 40.698,59.5 40.6,59.5C40.502,59.5 40.404,59.51 40.307,59.529C40.211,59.548 40.117,59.577 40.026,59.614C39.935,59.652 39.849,59.698 39.767,59.753C39.685,59.808 39.609,59.87 39.539,59.939C39.47,60.009 39.408,60.085 39.353,60.167C39.298,60.249 39.252,60.335 39.214,60.426C39.176,60.517 39.148,60.611 39.129,60.707C39.11,60.804 39.1,60.902 39.1,61C39.1,61.098 39.11,61.196 39.129,61.293C39.148,61.389 39.176,61.483 39.214,61.574C39.252,61.665 39.298,61.751 39.353,61.833C39.408,61.915 39.47,61.991 39.539,62.061C39.609,62.13 39.685,62.192 39.767,62.247C39.849,62.302 39.935,62.348 40.026,62.386C40.117,62.424 40.211,62.452 40.307,62.471C40.404,62.49 40.502,62.5 40.6,62.5C40.698,62.5 40.796,62.49 40.893,62.471C40.989,62.452 41.083,62.424 41.174,62.386C41.265,62.348 41.351,62.302 41.433,62.247C41.515,62.192 41.591,62.13 41.661,62.061C41.73,61.991 41.792,61.915 41.847,61.833C41.902,61.751 41.948,61.665 41.986,61.574C42.024,61.483 42.052,61.389 42.071,61.293C42.09,61.196 42.1,61.098 42.1,61Z" style="fill:white;fill-rule:nonzero;"/>
        </g>
        <g transform="matrix(19.3866,0,0,-19.3866,1996.58,4026.53)">
            <path d="M47.6,61C47.6,60.902 47.59,60.804 47.571,60.707C47.552,60.611 47.524,60.517 47.486,60.426C47.448,60.335 47.402,60.249 47.347,60.167C47.292,60.085 47.23,60.009 47.161,59.939C47.091,59.87 47.015,59.808 46.933,59.753C46.851,59.698 46.765,59.652 46.674,59.614C46.583,59.576 46.489,59.548 46.393,59.529C46.296,59.51 46.198,59.5 46.1,59.5C46.002,59.5 45.904,59.51 45.807,59.529C45.711,59.548 45.617,59.577 45.526,59.614C45.435,59.652 45.349,59.698 45.267,59.753C45.185,59.808 45.109,59.87 45.039,59.939C44.97,60.009 44.908,60.085 44.853,60.167C44.798,60.249 44.752,60.335 44.714,60.426C44.676,60.517 44.648,60.611 44.629,60.707C44.61,60.804 44.6,60.902 44.6,61C44.6,61.098 44.61,61.196 44.629,61.293C44.648,61.389 44.676,61.483 44.714,61.574C44.752,61.665 44.798,61.751 44.853,61.833C44.908,61.915 44.97,61.991 45.039,62.061C45.109,62.13 45.185,62.192 45.267,62.247C45.349,62.302 45.435,62.348 45.526,62.386C45.617,62.424 45.711,62.452 45.807,62.471C45.904,62.49 46.002,62.5 46.1,62.5C46.198,62.5 46.296,62.49 46.393,62.471C46.489,62.452 46.583,62.424 46.674,62.386C46.765,62.348 46.851,62.302 46.933,62.247C47.015,62.192 47.091,62.13 47.161,62.061C47.23,61.991 47.292,61.915 47.347,61.833C47.402,61.751 47.448,61.665 47.486,61.574C47.524,61.483 47.552,61.389 47.571,61.293C47.59,61.196 47.6,61.098 47.6,61Z" style="fill:white;fill-rule:nonzero;"/>
        </g>
        <g transform="matrix(19.3866,0,0,-19.3866,1996.58,4026.53)">
            <path d="M53.1,61C53.1,60.902 53.09,60.804 53.071,60.707C53.052,60.611 53.024,60.517 52.986,60.426C52.948,60.335 52.902,60.249 52.847,60.167C52.792,60.085 52.73,60.009 52.661,59.939C52.591,59.87 52.515,59.808 52.433,59.753C52.351,59.698 52.265,59.652 52.174,59.614C52.083,59.576 51.989,59.548 51.893,59.529C51.796,59.51 51.698,59.5 51.6,59.5C51.502,59.5 51.404,59.51 51.307,59.529C51.211,59.548 51.117,59.577 51.026,59.614C50.935,59.652 50.849,59.698 50.767,59.753C50.685,59.808 50.609,59.87 50.539,59.939C50.47,60.009 50.408,60.085 50.353,60.167C50.298,60.249 50.252,60.335 50.214,60.426C50.176,60.517 50.148,60.611 50.129,60.707C50.11,60.804 50.1,60.902 50.1,61C50.1,61.098 50.11,61.196 50.129,61.293C50.148,61.389 50.176,61.483 50.214,61.574C50.252,61.665 50.298,61.751 50.353,61.833C50.408,61.915 50.47,61.991 50.539,62.061C50.609,62.13 50.685,62.192 50.767,62.247C50.849,62.302 50.935,62.348 51.026,62.386C51.117,62.424 51.211,62.452 51.307,62.471C51.404,62.49 51.502,62.5 51.6,62.5C51.698,62.5 51.796,62.49 51.893,62.471C51.989,62.452 52.083,62.424 52.174,62.386C52.265,62.348 52.351,62.302 52.433,62.247C52.515,62.192 52.591,62.13 52.661,62.061C52.73,61.991 52.792,61.915 52.847,61.833C52.902,61.751 52.948,61.665 52.986,61.574C53.024,61.483 53.052,61.389 53.071,61.293C53.09,61.196 53.1,61.098 53.1,61Z" style="fill:white;fill-rule:nonzero;"/>
        </g>
        <g transform="matrix(19.3866,0,0,-19.3866,1996.58,3598.09)">
            <path d="M73.7,80.3L55.4,80.3C50.9,80.3 47.2,76.6 47.2,72.1L47.2,67.9L46,67.9C40,67.9 34.1,65.7 29.6,61.8C25.1,57.9 22.2,52.6 21.3,46.8C19.4,45.2 18.1,42.5 18.1,39.5C18.1,34.8 21.1,30.9 25,30.6C25.4,30.1 26,29.7 26.7,29.7L28.1,29.7C29.3,29.7 30.2,30.7 30.2,31.8L30.2,47.1C30.2,48.3 29.2,49.2 28.1,49.2L26.7,49.2C26,49.2 25.4,48.9 25,48.3C24.4,48.3 23.7,48.1 23.2,47.9C25.4,58.5 35,66.3 46,66.3L47.2,66.3L47.2,59.6C47.2,58.5 46.7,54.1 46,47.9C45.9,47.4 46.2,46.9 46.7,46.6C46.9,46.5 47.1,46.4 47.3,46.4C47.6,46.4 47.9,46.5 48.1,46.7C52.4,50.2 54.8,51.4 55.4,51.4L67.8,51.4C68.4,50.1 68.6,49.2 68.8,48C68.3,48.2 67.8,48.3 67.2,48.3C66.8,48.8 66.2,49.2 65.5,49.2L64.1,49.2C62.9,49.2 62,48.2 62,47.1L62,31.9C62,30.7 63,29.8 64.1,29.8L65.6,29.8C64.9,27.8 63.2,25.9 62.3,25.3C59,22.9 53.9,22.3 50.9,22.2C50.6,22.7 50.1,23 49.4,23L46.6,23C45.7,23 44.9,22.2 44.9,21.3C44.9,20.4 45.7,19.6 46.6,19.6L49.4,19.6C50.1,19.6 50.6,20 50.9,20.5C54.1,20.6 59.5,21.3 63.2,23.9C64.4,24.8 67,27.6 67.4,30.6C71.1,31.1 74,34.8 74,39.4C74,42.6 72.6,45.4 70.5,47C70.2,48.7 70.1,49.9 69.5,51.4L73.6,51.4C78.1,51.4 81.8,55.1 81.8,59.6L81.8,72.1C81.9,76.6 78.2,80.3 73.7,80.3ZM19.7,39.5C19.7,43.1 21.8,46.1 24.6,46.7L24.6,32.3C21.8,32.8 19.7,35.8 19.7,39.5ZM26.2,47.1C26.2,47.4 26.4,47.6 26.7,47.6L28.1,47.6C28.4,47.6 28.6,47.4 28.6,47.1L28.6,31.9C28.6,31.6 28.4,31.4 28.1,31.4L26.7,31.4C26.4,31.4 26.2,31.6 26.2,31.9L26.2,47.1ZM64.1,31.3C63.8,31.3 63.6,31.5 63.6,31.8L63.6,47.1C63.6,47.4 63.8,47.6 64.1,47.6L65.5,47.6C65.8,47.6 66,47.4 66,47.1L66,31.9C66,31.6 65.8,31.4 65.5,31.4L64.1,31.4L64.1,31.3ZM72.5,39.5C72.5,35.9 70.4,32.9 67.6,32.3L67.6,46.6C70.4,46.1 72.5,43.1 72.5,39.5ZM80.3,59.6C80.3,56 77.3,53 73.7,53L55.4,53C54.1,53 51.5,51.5 47.7,48.4C48.1,51.7 48.9,58 48.9,59.6L48.9,72.1C48.9,75.7 51.9,78.7 55.5,78.7L73.8,78.7C77.4,78.7 80.4,75.7 80.4,72.1L80.4,59.6L80.3,59.6Z" style="fill:white;fill-rule:nonzero;"/>
        </g>
        <g transform="matrix(19.3866,0,0,-19.3866,1996.58,2797.42)">
            <path d="M73.7,30.1L55,30.1C54.6,30.1 54.2,29.7 54.2,29.3C54.2,28.9 54.6,28.5 55,28.5L73.8,28.5C74.2,28.5 74.6,28.9 74.6,29.3C74.6,29.7 74.2,30.1 73.7,30.1Z" style="fill:white;fill-rule:nonzero;"/>
        </g>
        <g transform="matrix(19.3866,0,0,-19.3866,1996.58,2999.04)">
            <path d="M73.7,35.3L55,35.3C54.6,35.3 54.2,34.9 54.2,34.5C54.2,34.1 54.6,33.7 55,33.7L73.8,33.7C74.2,33.7 74.6,34.1 74.6,34.5C74.6,34.9 74.2,35.3 73.7,35.3Z" style="fill:white;fill-rule:nonzero;"/>
        </g>
        <g transform="matrix(19.3866,0,0,-19.3866,1996.58,3196.78)">
            <path d="M73.7,40.4L54.9,40.4C54.5,40.4 54.1,40 54.1,39.6C54.1,39.2 54.5,38.8 54.9,38.8L73.7,38.8C74.1,38.8 74.5,39.2 74.5,39.6C74.5,40 74.2,40.4 73.7,40.4Z" style="fill:white;fill-rule:nonzero;"/>
        </g>
    </g>
</svg>
