<?xml version="1.0" encoding="UTF-8" standalone="no"?>
<!DOCTYPE svg PUBLIC "-//W3C//DTD SVG 1.1//EN" "http://www.w3.org/Graphics/SVG/1.1/DTD/svg11.dtd">
<svg width="100%" height="100%" viewBox="0 0 606 335" version="1.1" xmlns="http://www.w3.org/2000/svg" xmlns:xlink="http://www.w3.org/1999/xlink" xml:space="preserve" xmlns:serif="http://www.serif.com/" style="fill-rule:evenodd;clip-rule:evenodd;stroke-linejoin:round;stroke-miterlimit:2;">
    <g transform="matrix(1,0,0,1,-3267.45,-1438.34)">
        <g transform="matrix(1.38599,0,0,-1.38599,3267.39,1852.55)">
            <clipPath id="_clip1">
                <rect x="285" y="57.778" width="152.199" height="184.054"/>
            </clipPath>
            <g clip-path="url(#_clip1)">
                <path d="M433.457,182.68C430.266,192.965 425.207,202.387 418.414,210.684C411.379,219.277 402.789,226.277 392.887,231.492C382.98,236.707 372.348,239.824 361.285,240.762C350.598,241.668 339.965,240.508 329.68,237.316C327.047,236.5 324.469,235.559 321.949,234.5C322.926,231.672 323.781,228.813 324.516,225.926C327.043,227.027 329.645,227.996 332.316,228.824C339.559,231.07 346.969,232.184 354.34,232.184C366.195,232.184 377.953,229.305 388.742,223.621C424.863,204.605 438.781,159.742 419.762,123.621C403.715,93.137 367.984,77.594 334.805,86.656C333.543,87.004 332.191,86.773 331.113,86.031L307.898,70.066L307.922,98.242C307.922,99.551 307.348,100.793 306.348,101.641C300.684,106.434 295.902,111.977 292.039,118.023C289.82,116.008 287.516,114.082 285.137,112.254C289.063,106.324 293.715,100.953 299.027,96.223L298.996,61.613C298.996,59.961 299.91,58.445 301.371,57.676C302.023,57.332 302.734,57.164 303.445,57.164C304.328,57.164 305.207,57.426 305.965,57.945L334.48,77.555C342.895,75.48 351.543,74.754 360.227,75.387C369.422,76.059 378.395,78.242 386.887,81.871C395.457,85.531 403.277,90.559 410.137,96.809C417.23,103.277 423.117,110.906 427.633,119.477C432.848,129.383 435.965,140.016 436.902,151.078C437.809,161.762 436.648,172.395 433.457,182.68" style="fill:white;fill-rule:nonzero;"/>
            </g>
        </g>
        <g transform="matrix(1.38599,0,0,-1.38599,3267.39,1852.55)">
            <clipPath id="_clip2">
                <rect x="0" y="57.778" width="153" height="184.054"/>
            </clipPath>
            <g clip-path="url(#_clip2)">
                <path d="M130.852,101.641C129.855,100.793 129.277,99.551 129.277,98.242L129.305,70.066L106.086,86.031C105.34,86.547 104.457,86.816 103.566,86.816C103.176,86.816 102.781,86.762 102.395,86.656C69.215,77.594 33.484,93.137 17.438,123.621C-1.582,159.742 12.336,204.605 48.457,223.621C65.957,232.836 85.996,234.684 104.883,228.824C107.555,227.996 110.156,227.027 112.684,225.926C113.418,228.813 114.273,231.672 115.25,234.5C112.73,235.559 110.152,236.5 107.52,237.316C97.234,240.508 86.602,241.668 75.918,240.762C64.852,239.824 54.219,236.707 44.316,231.492C34.41,226.277 25.82,219.277 18.789,210.684C11.996,202.387 6.934,192.965 3.742,182.68C0.551,172.395 -0.605,161.762 0.297,151.078C1.234,140.016 4.355,129.383 9.57,119.477C14.082,110.906 19.969,103.277 27.066,96.809C33.922,90.559 41.746,85.531 50.313,81.871C58.809,78.242 67.777,76.059 76.977,75.387C85.656,74.754 94.305,75.48 102.719,77.555L131.238,57.945C131.992,57.426 132.871,57.164 133.758,57.164C134.465,57.164 135.176,57.332 135.828,57.676C137.289,58.445 138.203,59.961 138.203,61.613L138.176,96.223C143.484,100.953 148.137,106.324 152.063,112.254C149.684,114.082 147.383,116.008 145.16,118.023C141.301,111.977 136.516,106.434 130.852,101.641" style="fill:white;fill-rule:nonzero;"/>
            </g>
        </g>
        <g transform="matrix(1.38599,0,0,-1.38599,3267.39,1766.81)">
            <path d="M235.391,45.961L218.602,14.008L201.813,45.961C201.203,47.117 200.113,47.949 198.836,48.234C157.559,57.371 127.602,94.738 127.602,137.078C127.602,187.258 168.422,228.078 218.602,228.078C268.777,228.078 309.598,187.258 309.598,137.078C309.598,94.738 279.641,57.371 238.363,48.234C237.086,47.949 235.996,47.117 235.391,45.961ZM271.387,52.258C280.813,58.137 289.152,65.496 296.168,74.133C303.246,82.844 308.762,92.59 312.563,103.102C316.496,113.98 318.492,125.41 318.492,137.078C318.492,150.563 315.852,163.645 310.641,175.965C305.609,187.859 298.406,198.543 289.234,207.715C280.063,216.887 269.379,224.09 257.484,229.121C245.164,234.328 232.082,236.973 218.602,236.973C205.117,236.973 192.035,234.328 179.715,229.121C167.82,224.09 157.137,216.887 147.965,207.715C138.793,198.543 131.59,187.859 126.559,175.965C121.352,163.645 118.707,150.563 118.707,137.078C118.707,125.41 120.703,113.98 124.637,103.102C128.438,92.59 133.953,82.844 141.031,74.133C148.051,65.496 156.387,58.137 165.813,52.258C174.828,46.637 184.602,42.523 194.887,40.02L214.664,2.379C215.434,0.918 216.949,0 218.602,0C220.254,0 221.77,0.918 222.535,2.379L242.313,40.02C252.598,42.523 262.371,46.637 271.387,52.258" style="fill:white;fill-rule:nonzero;"/>
        </g>
        <g transform="matrix(1.38599,0,0,-1.38599,3267.39,1720.48)">
            <path d="M257.824,92.84L219.406,53.699C218.879,53.176 218.441,53.176 217.914,53.699L179.496,92.84C160.262,113.895 187.746,144.852 210.996,123.547L218.66,115.727L226.328,123.547C249.691,144.902 276.949,113.879 257.824,92.84ZM262.992,133.906C250.332,144.551 230.773,142.953 218.66,130.621C184.574,161.844 143.559,116.742 172.008,85.457L210.426,46.316C214.738,41.719 222.586,41.699 226.895,46.297L265.313,85.437C277.031,97.418 279.484,120.02 262.992,133.906" style="fill:white;fill-rule:nonzero;"/>
        </g>
        <g transform="matrix(1.38599,0,0,-1.38599,3267.39,1827.15)">
            <path d="M373.766,131.984L377.324,111.203L358.66,121.012L339.996,111.203L343.555,131.984L328.449,146.703L349.32,149.734L358.66,168.656L368,149.734L388.871,146.703L373.766,131.984ZM394.711,153.129L372.773,156.328L362.969,176.207C361.211,179.75 356.121,179.797 354.352,176.207L344.543,156.328L322.605,153.129C318.672,152.559 317.098,147.707 319.949,144.93L335.82,129.465L332.066,107.617C331.391,103.668 335.551,100.707 339.035,102.555L358.66,112.871L378.285,102.555C381.77,100.723 385.93,103.668 385.254,107.617L381.496,129.465L397.371,144.93C400.223,147.707 398.645,152.559 394.711,153.129" style="fill:white;fill-rule:nonzero;"/>
        </g>
        <g transform="matrix(1.38599,0,0,-1.38599,3267.39,1828.57)">
            <path d="M58.102,114.34C58.102,112.348 56.488,110.734 54.496,110.734C49.719,110.926 49.719,117.754 54.496,117.941C56.488,117.941 58.102,116.328 58.102,114.34ZM105.629,128.074C107.516,124.902 105.816,120.656 103.535,119.43C104.691,112.105 100.891,109.535 95.559,109.535L89.883,109.535C79.125,109.535 72.156,115.215 64.109,115.215L64.109,143.168L65.746,143.168C70.008,143.168 75.957,153.812 79.945,157.801C84.203,162.062 82.781,169.16 85.621,172C92.719,172 92.719,167.047 92.719,163.48C92.719,157.598 88.461,154.965 88.461,149.285L104.078,149.285C107.246,149.285 109.742,146.445 109.754,143.605C109.77,140.766 107.828,137.93 106.41,137.93C108.438,135.742 108.871,131.137 105.629,128.074ZM114.902,136.156C120.191,144.543 114.789,156.324 104.078,156.492L98.598,156.492C99.34,158.414 99.926,160.715 99.926,163.48C99.926,174.41 94.27,179.207 85.621,179.207C76.371,179.207 76.898,164.953 74.848,162.898C71.43,159.484 67.398,152.922 64.523,150.375L49.691,150.375C47.039,150.375 44.887,148.223 44.887,145.57L44.887,109.535C44.887,106.879 47.039,104.727 49.691,104.727L59.305,104.727C61.539,104.727 63.418,106.258 63.953,108.324C70.637,108.176 75.227,102.328 90.652,102.328C91.738,102.328 92.938,102.324 93.988,102.324C105.57,102.324 110.805,108.246 110.949,116.641C112.949,119.406 113.996,123.113 113.551,126.699C115.031,129.469 115.602,132.758 114.902,136.156" style="fill:white;fill-rule:nonzero;"/>
        </g>
    </g>
</svg>
