<?xml version="1.0" encoding="UTF-8" standalone="no"?>
<!DOCTYPE svg PUBLIC "-//W3C//DTD SVG 1.1//EN" "http://www.w3.org/Graphics/SVG/1.1/DTD/svg11.dtd">
<svg width="100%" height="100%" viewBox="0 0 834 834" version="1.1" xmlns="http://www.w3.org/2000/svg" xmlns:xlink="http://www.w3.org/1999/xlink" xml:space="preserve" xmlns:serif="http://www.serif.com/" style="fill-rule:evenodd;clip-rule:evenodd;stroke-linejoin:round;stroke-miterlimit:2;">
    <g transform="matrix(11.5478,-5.44266e-31,5.44266e-31,-11.5478,-160.721,994.055)">
        <path d="M42.117,50L46.625,50L46.625,47.746L42.117,47.746L42.117,50ZM52.84,30.832L44.887,30.832L40.137,36.469L50,36.469L50,38.727L38.238,38.727L27.789,51.129L35.746,51.129C35.496,50.566 35.352,49.957 35.352,49.324L35.352,48.422C35.352,45.562 38.133,43.234 41.551,43.234L55.648,43.234L55.648,45.488L41.551,45.488C39.379,45.488 37.605,46.805 37.605,48.422L37.605,49.324C37.605,50.004 37.922,50.629 38.449,51.129C39.172,51.812 40.293,52.254 41.551,52.254L55.637,52.254L55.637,54.512L41.551,54.512C40.098,54.512 38.762,54.086 37.703,53.383L26.324,53.383L26.324,56.766L71.422,56.766L71.422,53.383L68.836,53.383C67.621,54.113 66.234,54.512 64.781,54.512C63.332,54.512 61.941,54.113 60.73,53.383C60.207,53.066 59.711,52.695 59.266,52.254C59.242,52.234 59.223,52.219 59.203,52.199C56.125,49.121 56.125,44.113 59.203,41.035C59.539,40.699 59.902,40.402 60.285,40.137L52.84,30.832ZM52.254,22.332L45.488,16.531L45.488,28.578L52.254,28.578L52.254,22.332ZM63.906,41.055C63.496,41.117 63.098,41.223 62.719,41.371C62.359,41.512 62.02,41.687 61.695,41.902C61.375,42.109 61.074,42.355 60.797,42.629C58.598,44.828 58.598,48.406 60.797,50.605C61.301,51.109 61.891,51.504 62.527,51.781C63.23,52.09 63.992,52.254 64.781,52.254C66.016,52.254 67.188,51.855 68.156,51.129C68.348,50.984 68.531,50.832 68.707,50.66C68.727,50.641 68.75,50.625 68.77,50.605C69.023,50.348 69.246,50.07 69.445,49.781C69.68,49.437 69.871,49.074 70.02,48.695C70.383,47.781 70.492,46.789 70.355,45.828C70.293,45.398 70.188,44.973 70.027,44.559C69.887,44.195 69.707,43.844 69.484,43.508C69.281,43.199 69.043,42.902 68.77,42.629C68.496,42.359 68.203,42.121 67.891,41.914C67.563,41.695 67.207,41.516 66.84,41.371C66.434,41.211 66.012,41.102 65.574,41.043C65.313,41.004 65.051,40.98 64.781,40.98C64.484,40.98 64.195,41.008 63.906,41.055ZM77.539,33.859C77.113,33.434 76.371,33.434 75.945,33.859L69.504,40.301C69.801,40.527 70.094,40.766 70.363,41.035C70.633,41.309 70.875,41.598 71.098,41.898L77.539,35.457C77.977,35.016 77.977,34.301 77.539,33.859ZM72.207,43.973C72.98,46.156 72.766,48.602 71.566,50.633L71.965,51.129L73.676,51.129L73.676,59.02L24.066,59.02L24.066,51.129L25.352,51.129C25.391,50.719 25.465,50.395 25.586,50.246L43.234,29.293L43.234,13.918L45.906,13.918L54.512,21.293L54.512,29.309L62.352,39.109C63.129,38.859 63.945,38.727 64.781,38.727C65.699,38.727 66.59,38.891 67.43,39.187L74.352,32.266C74.988,31.629 75.84,31.277 76.742,31.277C77.645,31.277 78.496,31.629 79.133,32.266C80.453,33.586 80.453,35.73 79.133,37.051L72.207,43.973ZM48.883,50L55.648,50L55.648,47.746L48.883,47.746L48.883,50ZM63.531,81.008C63.531,82.559 64.543,83.824 65.785,83.824C67.027,83.824 68.039,82.559 68.039,81.008C68.039,80.523 67.934,80.074 67.762,79.676C67.598,79.301 67.375,78.977 67.098,78.727C66.73,78.391 66.277,78.187 65.785,78.187C65.309,78.187 64.867,78.375 64.5,78.695C64.219,78.937 63.992,79.266 63.824,79.641C63.645,80.047 63.531,80.508 63.531,81.008ZM47.746,81.008C47.746,82.559 48.758,83.824 50,83.824C51.242,83.824 52.254,82.559 52.254,81.008C52.254,80.523 52.148,80.074 51.977,79.676C51.813,79.301 51.59,78.977 51.316,78.727C50.945,78.391 50.492,78.187 50,78.187C49.523,78.187 49.082,78.375 48.715,78.695C48.434,78.937 48.207,79.266 48.039,79.641C47.859,80.047 47.746,80.508 47.746,81.008ZM31.961,81.008C31.961,82.559 32.973,83.824 34.215,83.824C35.457,83.824 36.469,82.559 36.469,81.008C36.469,80.523 36.363,80.074 36.191,79.676C36.027,79.301 35.805,78.973 35.531,78.727C35.16,78.391 34.707,78.187 34.215,78.187C33.738,78.187 33.297,78.375 32.93,78.695C32.652,78.937 32.422,79.266 32.254,79.641C32.074,80.047 31.961,80.508 31.961,81.008ZM27.449,68.43C27.117,68.187 26.734,68.039 26.324,68.039C25.91,68.039 25.527,68.187 25.195,68.43C25.145,68.469 25.09,68.504 25.039,68.547C24.758,68.789 24.531,69.117 24.363,69.492C24.18,69.898 24.066,70.359 24.066,70.859C24.066,71.898 24.523,72.797 25.195,73.285C25.527,73.527 25.91,73.676 26.324,73.676C26.734,73.676 27.117,73.527 27.449,73.285C28.121,72.797 28.578,71.898 28.578,70.859C28.578,70.375 28.469,69.926 28.297,69.527C28.137,69.152 27.914,68.828 27.637,68.578C27.578,68.523 27.516,68.477 27.449,68.43ZM37.973,68.633C36.574,68.094 35.156,67.535 34.207,66.551C33.258,67.543 31.852,68.105 30.547,68.629L30.395,68.691C30.672,69.348 30.832,70.082 30.832,70.859C30.832,72.867 29.785,74.602 28.277,75.422C28.813,75.824 29.648,76.195 30.902,76.68L31.539,76.934C32.289,76.309 33.211,75.934 34.215,75.934C35.23,75.934 36.164,76.316 36.918,76.957L37.602,76.684C38.832,76.191 39.637,75.809 40.148,75.422C38.641,74.598 37.598,72.867 37.598,70.859C37.598,70.07 37.762,69.328 38.047,68.664L37.973,68.633ZM43.234,68.43C42.902,68.187 42.52,68.039 42.105,68.039C41.695,68.039 41.313,68.187 40.98,68.43C40.926,68.469 40.875,68.504 40.824,68.547C40.543,68.789 40.316,69.117 40.148,69.492C39.965,69.898 39.852,70.359 39.852,70.859C39.852,71.898 40.309,72.797 40.98,73.285C41.313,73.527 41.695,73.676 42.105,73.676C42.52,73.676 42.902,73.527 43.234,73.285C43.906,72.797 44.363,71.898 44.363,70.859C44.363,70.375 44.258,69.926 44.082,69.527C43.922,69.152 43.699,68.828 43.422,68.578C43.363,68.523 43.297,68.477 43.234,68.43ZM53.758,68.633C52.359,68.094 50.941,67.535 49.992,66.551C49.043,67.543 47.637,68.105 46.332,68.629L46.18,68.691C46.457,69.348 46.617,70.082 46.617,70.859C46.617,72.867 45.57,74.602 44.063,75.422C44.598,75.824 45.43,76.195 46.688,76.68L47.324,76.934C48.074,76.309 48.996,75.934 50,75.934C51.016,75.934 51.949,76.316 52.707,76.957L53.387,76.684C54.617,76.191 55.418,75.809 55.934,75.422C54.426,74.602 53.383,72.867 53.383,70.859C53.383,70.07 53.547,69.328 53.832,68.664L53.758,68.633ZM59.02,68.434C58.688,68.187 58.305,68.039 57.895,68.039C57.48,68.039 57.098,68.187 56.766,68.434C56.715,68.469 56.656,68.504 56.609,68.547C56.328,68.789 56.102,69.117 55.934,69.492C55.75,69.898 55.637,70.359 55.637,70.859C55.637,71.898 56.094,72.797 56.766,73.285C57.098,73.527 57.48,73.676 57.895,73.676C58.305,73.676 58.688,73.527 59.02,73.285C59.691,72.797 60.148,71.898 60.148,70.859C60.148,70.375 60.039,69.926 59.867,69.527C59.707,69.152 59.48,68.828 59.207,68.578C59.148,68.523 59.086,68.48 59.02,68.434ZM69.543,68.633C68.145,68.094 66.723,67.535 65.777,66.551C64.828,67.543 63.422,68.105 62.117,68.629L61.965,68.691C62.242,69.348 62.402,70.082 62.402,70.859C62.402,72.867 61.355,74.602 59.848,75.422C60.383,75.824 61.219,76.195 62.473,76.68L63.105,76.934C63.855,76.309 64.781,75.934 65.785,75.934C66.801,75.934 67.734,76.316 68.488,76.957L69.172,76.684C70.402,76.191 71.203,75.809 71.719,75.422C70.211,74.602 69.168,72.867 69.168,70.859C69.168,70.07 69.332,69.328 69.617,68.664L69.543,68.633ZM74.805,68.434C74.473,68.187 74.09,68.039 73.676,68.039C73.266,68.039 72.883,68.187 72.551,68.434C72.496,68.469 72.445,68.504 72.395,68.547C72.113,68.789 71.887,69.117 71.719,69.492C71.535,69.898 71.422,70.359 71.422,70.859C71.422,71.898 71.879,72.797 72.551,73.285C72.883,73.527 73.266,73.676 73.676,73.676C74.09,73.676 74.473,73.527 74.805,73.285C75.477,72.797 75.934,71.898 75.934,70.859C75.934,70.375 75.824,69.926 75.652,69.527C75.492,69.152 75.27,68.828 74.992,68.578C74.934,68.523 74.867,68.48 74.805,68.434ZM77.902,68.629L77.75,68.691C78.027,69.348 78.188,70.082 78.188,70.859C78.188,73.426 76.48,75.551 74.277,75.883C73.414,77.41 71.637,78.129 70.008,78.777L69.855,78.84C70.137,79.496 70.293,80.23 70.293,81.008C70.293,83.805 68.273,86.082 65.785,86.082C63.297,86.082 61.273,83.805 61.273,81.008C61.273,80.219 61.441,79.477 61.727,78.812L61.652,78.781C60.254,78.238 58.832,77.684 57.883,76.695C56.934,77.691 55.531,78.254 54.223,78.777L54.07,78.84C54.352,79.496 54.512,80.23 54.512,81.008C54.512,83.805 52.488,86.082 50,86.082C47.516,86.082 45.488,83.805 45.488,81.008C45.488,80.219 45.656,79.477 45.941,78.812L45.867,78.781C44.469,78.238 43.047,77.684 42.098,76.695C41.148,77.691 39.746,78.254 38.438,78.777L38.285,78.84C38.566,79.496 38.727,80.23 38.727,81.008C38.727,83.805 36.703,86.082 34.215,86.082C31.727,86.082 29.707,83.805 29.707,81.008C29.707,80.219 29.871,79.477 30.156,78.812L30.082,78.781C28.34,78.105 26.559,77.41 25.711,75.879C23.512,75.543 21.813,73.422 21.813,70.859C21.813,70.07 21.977,69.328 22.262,68.664L22.188,68.633C19.785,67.703 17.301,66.742 17.301,63.59L17.301,61.273L19.559,61.273L19.559,63.59C19.559,64.984 20.332,65.496 23.008,66.535L23.645,66.785C24.105,66.402 24.629,66.117 25.195,65.953C25.555,65.848 25.934,65.785 26.324,65.785C26.711,65.785 27.09,65.848 27.449,65.953C28.031,66.121 28.562,66.414 29.027,66.809L29.711,66.535C30.406,66.258 30.965,66.016 31.414,65.785C32.734,65.109 33.086,64.559 33.086,63.59L33.086,61.273L35.344,61.273L35.344,63.59C35.344,64.609 35.762,65.16 37.031,65.785C37.496,66.016 38.074,66.254 38.793,66.535L39.43,66.785C39.891,66.402 40.414,66.117 40.98,65.953C41.34,65.848 41.719,65.785 42.105,65.785C42.496,65.785 42.875,65.848 43.234,65.953C43.813,66.121 44.348,66.414 44.813,66.809L45.496,66.535C46.191,66.258 46.75,66.016 47.199,65.785C48.52,65.109 48.871,64.559 48.871,63.59L48.871,61.273L51.129,61.273L51.129,63.59C51.129,64.609 51.547,65.16 52.816,65.785C53.281,66.016 53.859,66.254 54.578,66.535L55.215,66.785C55.672,66.402 56.199,66.117 56.766,65.953C57.125,65.848 57.504,65.785 57.895,65.785C58.281,65.785 58.66,65.848 59.02,65.953C59.598,66.121 60.133,66.414 60.598,66.809L61.281,66.535C61.977,66.258 62.535,66.016 62.984,65.785C64.305,65.109 64.656,64.559 64.656,63.59L64.656,61.273L66.914,61.273L66.914,63.59C66.914,64.609 67.332,65.16 68.602,65.785C69.066,66.016 69.645,66.254 70.363,66.535L71,66.785C71.461,66.402 71.98,66.117 72.551,65.953C72.91,65.848 73.289,65.785 73.676,65.785C74.066,65.785 74.445,65.848 74.805,65.953C75.383,66.121 75.918,66.414 76.383,66.809L77.066,66.535C79.813,65.437 80.441,64.887 80.441,63.59L80.441,61.273L82.699,61.273L82.699,63.59C82.699,66.715 80.148,67.73 77.902,68.629" style="fill:white;fill-rule:nonzero;"/>
    </g>
</svg>
