<?xml version="1.0" encoding="UTF-8" standalone="no"?>
<!DOCTYPE svg PUBLIC "-//W3C//DTD SVG 1.1//EN" "http://www.w3.org/Graphics/SVG/1.1/DTD/svg11.dtd">
<svg width="100%" height="100%" viewBox="0 0 471 523" version="1.1" xmlns="http://www.w3.org/2000/svg" xmlns:xlink="http://www.w3.org/1999/xlink" xml:space="preserve" xmlns:serif="http://www.serif.com/" style="fill-rule:evenodd;clip-rule:evenodd;stroke-linejoin:round;stroke-miterlimit:2;">
    <g transform="matrix(1,0,0,1,-3323.5,-2128.92)">
        <g transform="matrix(8.71686,0,0,-8.71686,3297.42,2651.27)">
            <path d="M9.055,37.41C9.602,39.961 10.602,42.371 12.027,44.566C12.211,44.848 12.238,45.199 12.109,45.504L10.828,48.5C10.746,48.695 10.77,48.891 10.891,49.035C11.719,50.035 12.676,50.996 13.902,52.047C14.039,52.16 14.234,52.184 14.426,52.102L17.426,50.82C17.734,50.691 18.086,50.723 18.363,50.902C20.559,52.328 22.965,53.328 25.52,53.875C25.844,53.945 26.113,54.172 26.238,54.48L27.445,57.496C27.523,57.684 27.691,57.82 27.863,57.836C29.168,57.961 30.688,57.961 32.141,57.836C32.309,57.82 32.477,57.684 32.551,57.5L33.762,54.48C33.887,54.172 34.156,53.945 34.48,53.875C37.035,53.328 39.441,52.328 41.637,50.902C41.914,50.723 42.266,50.691 42.574,50.82L45.574,52.102C45.766,52.184 45.961,52.16 46.105,52.039C47.09,51.23 48.078,50.242 49.117,49.027C49.23,48.891 49.254,48.695 49.172,48.504L47.891,45.504C47.762,45.199 47.789,44.848 47.973,44.566C49.398,42.371 50.398,39.961 50.945,37.41C51.016,37.086 51.242,36.816 51.551,36.691L54.566,35.484C54.754,35.41 54.891,35.238 54.906,35.066C55.031,33.766 55.031,32.242 54.906,30.789C54.891,30.621 54.754,30.453 54.57,30.379L51.551,29.168C51.242,29.043 51.016,28.773 50.945,28.449C50.398,25.898 49.398,23.492 47.973,21.293C47.789,21.016 47.762,20.664 47.891,20.355L49.172,17.359C49.254,17.168 49.23,16.969 49.109,16.828C48.297,15.84 47.309,14.855 46.098,13.816C46.07,13.793 46.031,13.789 46,13.773L46,22.707C47.957,25.758 49,29.281 49,32.93C49,43.406 40.477,51.93 30,51.93C19.523,51.93 11,43.406 11,32.93C11,29.281 12.043,25.758 14,22.707L14,13.777C13.965,13.793 13.926,13.793 13.895,13.82C12.906,14.637 11.922,15.621 10.883,16.832C10.77,16.969 10.746,17.168 10.828,17.355L12.109,20.355C12.238,20.664 12.211,21.016 12.027,21.293C10.602,23.492 9.602,25.898 9.055,28.449C8.988,28.773 8.758,29.043 8.449,29.168L5.434,30.379C5.25,30.453 5.109,30.621 5.094,30.793C4.969,32.098 4.969,33.617 5.094,35.074C5.109,35.238 5.25,35.41 5.43,35.48L8.449,36.691C8.758,36.816 8.988,37.086 9.055,37.41ZM44,8.93C44,7.828 43.102,6.93 42,6.93L32,6.93C31.832,6.93 31.668,6.887 31.523,6.809L22.621,1.98C22.434,1.879 22.27,1.953 22.207,1.992C22.129,2.039 22,2.145 22,2.352L22,5.93C22,6.48 21.551,6.93 21,6.93L18,6.93C16.898,6.93 16,7.828 16,8.93L16,28.93C16,30.031 16.898,30.93 18,30.93L42,30.93C43.102,30.93 44,30.031 44,28.93L44,8.93ZM42,32.93L18,32.93C15.793,32.93 14,31.137 14,28.93L14,27.207C13.348,29.027 13,30.957 13,32.93C13,42.305 20.625,49.93 30,49.93C39.375,49.93 47,42.305 47,32.93C47,30.957 46.652,29.027 46,27.207L46,28.93C46,31.137 44.207,32.93 42,32.93ZM4.684,37.336C3.805,36.984 3.184,36.164 3.102,35.246C3.008,34.133 2.93,32.422 3.102,30.609C3.184,29.699 3.805,28.879 4.687,28.523L7.219,27.508C7.793,25.086 8.75,22.785 10.063,20.66L8.988,18.141C8.613,17.254 8.754,16.262 9.359,15.539C10.477,14.23 11.547,13.164 12.613,12.285C13.012,11.953 13.496,11.777 14,11.738L14,8.93C14,6.723 15.793,4.93 18,4.93L20,4.93L20,2.352C20,1.492 20.441,0.715 21.184,0.273C21.57,0.043 21.996,-0.07 22.426,-0.07C22.82,-0.07 23.215,0.027 23.578,0.223L32.254,4.93L42,4.93C44.207,4.93 46,6.723 46,8.93L46,11.727C46.504,11.77 46.992,11.953 47.391,12.289C48.699,13.41 49.766,14.477 50.648,15.547C51.246,16.262 51.387,17.254 51.012,18.145L49.938,20.66C51.25,22.785 52.207,25.086 52.781,27.508L55.316,28.523C56.195,28.879 56.816,29.699 56.898,30.613C56.992,31.727 57.07,33.437 56.898,35.25C56.816,36.164 56.195,36.984 55.316,37.34L52.781,38.355C52.207,40.777 51.25,43.078 49.938,45.203L51.012,47.723C51.387,48.609 51.246,49.602 50.641,50.324C49.52,51.633 48.453,52.699 47.387,53.578C46.672,54.176 45.676,54.316 44.789,53.941L42.273,52.867C40.148,54.18 37.848,55.133 35.422,55.711L34.406,58.246C34.051,59.125 33.23,59.746 32.316,59.828C31.203,59.922 29.496,60 27.68,59.828C26.77,59.746 25.949,59.125 25.59,58.246L24.578,55.711C22.152,55.133 19.852,54.18 17.727,52.867L15.211,53.941C14.324,54.32 13.328,54.18 12.605,53.57C11.285,52.437 10.25,51.398 9.352,50.316C8.754,49.602 8.613,48.609 8.988,47.719L10.063,45.203C8.75,43.078 7.793,40.777 7.219,38.355L4.684,37.336" style="fill:white;fill-rule:nonzero;"/>
        </g>
        <g transform="matrix(8.71686,0,0,-8.71686,3297.42,2843.65)">
            <path d="M41,42L19,42C18.449,42 18,41.551 18,41C18,40.449 18.449,40 19,40L41,40C41.551,40 42,40.449 42,41C42,41.551 41.551,42 41,42" style="fill:white;fill-rule:nonzero;"/>
        </g>
        <g transform="matrix(8.71686,0,0,-8.71686,3297.42,2773.92)">
            <path d="M19,36L33,36C33.551,36 34,36.449 34,37C34,37.551 33.551,38 33,38L19,38C18.449,38 18,37.551 18,37C18,36.449 18.449,36 19,36" style="fill:white;fill-rule:nonzero;"/>
        </g>
        <g transform="matrix(8.71686,0,0,-8.71686,3297.42,2773.92)">
            <path d="M41,38L37,38C36.449,38 36,37.551 36,37C36,36.449 36.449,36 37,36L41,36C41.551,36 42,36.449 42,37C42,37.551 41.551,38 41,38" style="fill:white;fill-rule:nonzero;"/>
        </g>
        <g transform="matrix(8.71686,0,0,-8.71686,3297.42,2983.12)">
            <path d="M31,50L19,50C18.449,50 18,49.551 18,49C18,48.449 18.449,48 19,48L31,48C31.551,48 32,48.449 32,49C32,49.551 31.551,50 31,50" style="fill:white;fill-rule:nonzero;"/>
        </g>
        <g transform="matrix(8.71686,0,0,-8.71686,3297.42,2913.39)">
            <path d="M19,44L21,44C21.551,44 22,44.449 22,45C22,45.551 21.551,46 21,46L19,46C18.449,46 18,45.551 18,45C18,44.449 18.449,44 19,44" style="fill:white;fill-rule:nonzero;"/>
        </g>
        <g transform="matrix(8.71686,0,0,-8.71686,3297.42,2913.39)">
            <path d="M41,46L25,46C24.449,46 24,45.551 24,45C24,44.449 24.449,44 25,44L41,44C41.551,44 42,44.449 42,45C42,45.551 41.551,46 41,46" style="fill:white;fill-rule:nonzero;"/>
        </g>
        <g transform="matrix(8.71686,0,0,-8.71686,3297.42,2704.18)">
            <path d="M41,34L19,34C18.449,34 18,33.551 18,33C18,32.449 18.449,32 19,32L41,32C41.551,32 42,32.449 42,33C42,33.551 41.551,34 41,34" style="fill:white;fill-rule:nonzero;"/>
        </g>
    </g>
</svg>
