<?xml version="1.0" encoding="UTF-8" standalone="no"?>
<!DOCTYPE svg PUBLIC "-//W3C//DTD SVG 1.1//EN" "http://www.w3.org/Graphics/SVG/1.1/DTD/svg11.dtd">
<svg width="100%" height="100%" viewBox="0 0 834 834" version="1.1" xmlns="http://www.w3.org/2000/svg" xmlns:xlink="http://www.w3.org/1999/xlink" xml:space="preserve" xmlns:serif="http://www.serif.com/" style="fill-rule:evenodd;clip-rule:evenodd;stroke-linejoin:round;stroke-miterlimit:2;">
    <g transform="matrix(2.94724,0,0,2.94724,-3159.19,-1443.42)">
        <clipPath id="_clip1">
            <rect x="1079.92" y="489.759" width="268.5" height="282.75"/>
        </clipPath>
        <g clip-path="url(#_clip1)">
            <g transform="matrix(3.50218,0,0,-3.50218,1055.06,788.893)">
                <path d="M24.997,85.291C24.585,85.291 24.194,85.113 23.924,84.806L7.404,65.816C7.179,65.556 7.054,65.223 7.058,64.879L7.058,6.263C7.058,5.488 7.689,4.853 8.47,4.853L65.023,4.805C65.804,4.805 66.439,5.441 66.439,6.222L66.439,28.472C66.46,29.269 65.82,29.925 65.023,29.925C64.226,29.925 63.585,29.269 63.601,28.472L63.601,7.638L9.893,7.686L9.893,63.463L26.997,63.463C27.778,63.463 28.413,64.097 28.413,64.879L28.413,77.873C28.43,78.671 27.773,79.322 26.975,79.311C26.194,79.301 25.57,78.656 25.579,77.873L25.579,66.296L11.579,66.296L25.637,82.458L63.602,82.458L63.602,59.17C63.586,58.373 64.227,57.717 65.024,57.717C65.821,57.717 66.462,58.373 66.44,59.17L66.44,83.873C66.44,84.655 65.805,85.291 65.024,85.291L24.997,85.291Z" style="fill:white;"/>
            </g>
            <g transform="matrix(3.50218,0,0,-3.50218,1055.06,697.451)">
                <path d="M23.565,33.41C22.773,33.419 22.127,32.785 22.127,31.993C22.127,31.201 22.773,30.566 23.565,30.577L49.934,30.577C50.72,30.566 51.372,31.201 51.372,31.993C51.372,32.785 50.721,33.42 49.934,33.41L23.565,33.41Z" style="fill:white;fill-rule:nonzero;"/>
            </g>
            <g transform="matrix(3.50218,0,0,-3.50218,1055.06,750.093)">
                <path d="M17.961,40.925C17.168,40.936 16.522,40.3 16.522,39.508C16.522,38.717 17.168,38.081 17.961,38.092L23.992,38.092C24.783,38.081 25.43,38.717 25.43,39.508C25.43,40.3 24.784,40.936 23.992,40.925L17.961,40.925Z" style="fill:white;fill-rule:nonzero;"/>
            </g>
            <g transform="matrix(3.50218,0,0,-3.50218,1055.06,750.093)">
                <path d="M29.716,40.925C28.924,40.936 28.278,40.3 28.278,39.508C28.278,38.717 28.924,38.081 29.716,38.092L55.528,38.092C56.321,38.081 56.966,38.717 56.966,39.508C56.966,40.3 56.321,40.936 55.528,40.925L29.716,40.925Z" style="fill:white;fill-rule:nonzero;"/>
            </g>
            <g transform="matrix(3.50218,0,0,-3.50218,1055.06,802.737)">
                <path d="M17.961,48.441C17.168,48.452 16.522,47.816 16.522,47.025C16.522,46.233 17.168,45.597 17.961,45.608L47.69,45.608C48.482,45.597 49.128,46.233 49.128,47.025C49.128,47.816 48.482,48.452 47.69,48.441L17.961,48.441Z" style="fill:white;fill-rule:nonzero;"/>
            </g>
            <g transform="matrix(3.50218,0,0,-3.50218,1055.06,820.255)">
                <path d="M50.617,41.718L54.221,38.114L51.852,33.666L46.961,32.452L51.102,36.592C52.034,37.493 51.362,39.072 50.066,39.026C49.695,39.015 49.347,38.864 49.091,38.598L44.965,34.463L46.175,39.343L50.617,41.718ZM73.331,64.766L77.211,60.88C71.227,52.615 65.549,46.339 56.514,39.828L52.336,44.016C58.836,53.079 65.002,58.902 73.331,64.766ZM78.695,67.959C79.148,67.964 79.58,67.809 80.028,67.479C80.637,67.027 80.856,66.063 79.945,64.746C79.586,64.225 79.238,63.74 78.878,63.229L75.722,66.391C76.227,66.735 76.706,67.073 77.233,67.418C77.764,67.771 78.243,67.948 78.695,67.959ZM79.123,70.755C77.998,70.828 76.784,70.527 75.664,69.787C64.611,62.484 56.997,55.656 48.913,44.005L44.283,41.562C43.929,41.369 43.675,41.036 43.576,40.645L40.986,30.198C40.726,29.166 41.664,28.223 42.694,28.478L53.148,31.072C53.539,31.166 53.872,31.426 54.059,31.786L56.507,36.417C68.169,44.505 74.768,52.265 82.278,63.136C83.803,65.344 83.549,67.978 82.038,69.484C81.284,70.24 80.247,70.683 79.123,70.755Z" style="fill:white;fill-rule:nonzero;"/>
            </g>
            <g transform="matrix(3.50218,0,0,-3.50218,1055.06,953.303)">
                <path d="M23.918,77.938C22.669,77.11 21.383,75.798 20.102,74.23C17.539,71.084 15.071,67.094 14.596,63.813C14.246,61.428 15.492,59.673 16.758,58.969C18.022,58.266 19.283,58.277 19.283,58.277C21.175,58.241 21.226,61.075 19.336,61.11C19.336,61.11 18.664,61.151 18.132,61.449C17.596,61.745 17.19,61.944 17.399,63.408C17.7,65.46 19.962,69.563 22.304,72.433C23.066,73.365 23.825,74.208 24.514,74.802C25.169,75.359 25.716,75.469 25.847,74.469C25.905,73.996 25.868,73.427 25.779,72.75C25.571,71.141 25.112,69.255 24.633,67.443C24.154,65.631 23.654,63.896 23.353,62.484C23.202,61.776 23.082,61.151 23.072,60.547C23.067,60.244 23.082,59.948 23.181,59.593C23.285,59.244 23.515,58.786 23.994,58.489C24.687,58.056 25.587,57.968 26.327,58.176C27.067,58.384 27.677,58.796 28.275,59.316C29.02,59.958 29.805,61.125 30.572,62.134C30.567,61.292 30.582,60.521 30.567,59.723C30.556,59.218 30.81,58.748 31.239,58.489C31.863,58.098 32.65,57.931 33.385,58.035C34.119,58.144 34.785,58.468 35.415,58.915C36.677,59.811 37.885,61.228 39.223,63.228C40.276,64.796 37.92,66.373 36.869,64.805C35.797,63.206 34.806,62.124 34.103,61.477C33.477,60.91 33.411,61.248 33.419,61.701C33.436,62.551 33.472,63.406 33.389,64.17C33.275,65.305 32.873,66.045 32.092,66.441C31.056,66.966 30.181,66.212 29.618,65.446C28.44,63.857 27.523,62.529 26.743,61.763C26.264,61.284 26.034,61.487 26.217,62.309C26.483,63.518 26.941,65.059 27.373,66.711C27.862,68.56 28.348,70.533 28.586,72.378C28.826,74.222 28.905,75.946 28.181,77.451C26.867,79.11 25.435,78.812 23.918,77.938Z" style="fill:white;fill-rule:nonzero;"/>
            </g>
        </g>
    </g>
</svg>
