<?xml version="1.0" encoding="UTF-8" standalone="no"?>
<!DOCTYPE svg PUBLIC "-//W3C//DTD SVG 1.1//EN" "http://www.w3.org/Graphics/SVG/1.1/DTD/svg11.dtd">
<svg width="100%" height="100%" viewBox="0 0 834 834" version="1.1" xmlns="http://www.w3.org/2000/svg" xmlns:xlink="http://www.w3.org/1999/xlink" xml:space="preserve" xmlns:serif="http://www.serif.com/" style="fill-rule:evenodd;clip-rule:evenodd;stroke-linejoin:round;stroke-miterlimit:2;">
    <g transform="matrix(1.69271,3.17031e-32,-3.17031e-32,-1.69271,-16.6663,850)">
        <path d="M158.187,359.21C154.773,360.787 152.85,364.614 153.796,368.396C154.866,372.676 159.203,375.278 163.483,374.208L184.704,368.887C189.907,367.586 192.331,361.627 189.648,357.076L179.578,338.09C177.524,334.189 172.697,332.692 168.797,334.746C165.125,336.679 163.584,341.07 165.129,344.832C159.038,341.444 153.244,337.468 147.845,332.929C115.284,305.558 101.119,261.444 112.183,219.776C118.015,197.81 130.578,177.611 149.064,162.556C147.145,163.242 145.283,163.915 143.49,164.563C138.788,166.263 134.537,167.8 130.706,169.042C126.638,170.362 122.671,170.949 118.787,170.953C108.443,184.374 101.015,199.632 96.745,215.713C84.101,263.33 100.3,313.765 137.594,345.116C144.028,350.527 150.933,355.235 158.187,359.21ZM46.48,136.587L91.714,56.662C93.901,52.797 92.529,47.846 88.664,45.659L73.278,36.951C69.413,34.764 64.462,36.136 62.275,40.001L17.041,119.926C14.854,123.791 16.226,128.742 20.091,130.929L35.477,139.636C39.342,141.824 44.293,140.451 46.48,136.587ZM36.108,124.606C33.106,124.167 31.028,121.378 31.467,118.376C31.906,115.374 34.695,113.296 37.697,113.735C40.699,114.174 42.777,116.963 42.338,119.965C41.899,122.967 39.11,125.045 36.108,124.606ZM181.502,119.082C186.548,118.47 190.615,119.667 192.035,124.97C193.256,129.528 190.302,133.777 186.061,135.332C168.415,138.589 151.424,144.731 138.053,149.566C119.546,156.257 115.153,157.935 96.862,147.345L68.176,130.737L94.648,83.963C95.494,84.009 96.338,83.92 97.148,83.704L173.778,63.196C182.698,60.805 191.01,61.858 198.897,66.713C234.122,88.365 269.329,110.05 304.538,131.731C307.078,133.295 308.308,137.115 307.914,140.915C307.604,143.905 306.221,146.655 303.457,148.055C298.581,150.525 289.814,149.615 275.874,141.496L217.662,107.591C212.752,104.732 207.693,102.913 202.434,102.03C187.58,99.535 165.775,106.324 152.371,110.151C148.199,111.342 143.963,112.552 139.913,113.637C135.65,114.776 133.118,119.155 134.257,123.418C135.396,127.681 139.775,130.213 144.038,129.074C156.501,125.735 168.876,121.711 181.502,119.082ZM465.52,375.413L420.286,455.338C418.099,459.203 419.471,464.154 423.336,466.341L438.722,475.049C442.587,477.236 447.538,475.864 449.725,471.999L494.959,392.074C497.146,388.209 495.774,383.258 491.909,381.071L476.523,372.364C472.659,370.176 467.707,371.548 465.52,375.413ZM475.892,387.394C478.894,387.833 480.972,390.622 480.533,393.624C480.094,396.626 477.305,398.704 474.303,398.265C471.301,397.826 469.223,395.037 469.662,392.035C470.101,389.033 472.89,386.955 475.892,387.394ZM330.498,392.918C325.452,393.53 321.385,392.333 319.965,387.03C318.744,382.472 321.698,378.222 325.939,376.668C343.586,373.411 360.576,367.269 373.948,362.434C392.455,355.743 396.848,354.064 415.139,364.655L443.825,381.263L417.353,428.037C416.507,427.991 415.663,428.08 414.853,428.296L338.223,448.804C329.304,451.195 320.991,450.143 313.104,445.287C277.879,423.635 242.672,401.949 207.463,380.269C204.922,378.705 203.693,374.885 204.087,371.085C204.395,368.115 205.801,365.334 208.544,363.945C213.421,361.475 222.187,362.385 236.127,370.504L294.339,404.41C299.249,407.269 304.309,409.088 309.567,409.971C324.421,412.466 346.226,405.677 359.63,401.849C363.802,400.658 368.038,399.448 372.088,398.363C376.351,397.224 378.883,392.844 377.744,388.582C376.605,384.319 372.226,381.787 367.963,382.926C355.499,386.265 343.124,390.289 330.498,392.918ZM182.855,316.067C168.393,316.067 156.668,304.343 156.668,289.88C156.668,275.417 168.392,263.693 182.855,263.693C197.318,263.693 209.042,275.417 209.042,289.88C209.041,304.342 197.317,316.067 182.855,316.067ZM138.538,207.473L227.171,207.473C231.118,207.473 233.972,211.164 232.978,214.985C227.181,237.254 206.938,253.693 182.854,253.693C158.77,253.693 138.527,237.253 132.73,214.985C131.736,211.164 134.59,207.473 138.538,207.473ZM284.83,207.473L373.463,207.473C377.41,207.473 380.264,211.164 379.27,214.985C373.473,237.254 353.23,253.693 329.147,253.693C305.063,253.693 284.82,237.253 279.023,214.985C278.028,211.164 280.882,207.473 284.83,207.473ZM329.146,316.067C343.608,316.067 355.333,304.343 355.333,289.88C355.333,275.417 343.609,263.693 329.146,263.693C314.684,263.693 302.959,275.417 302.959,289.88C302.96,304.342 314.684,316.067 329.146,316.067ZM256,337.383C241.538,337.383 229.813,325.659 229.813,311.196C229.813,296.733 241.537,285.009 256,285.009C270.463,285.009 282.187,296.733 282.187,311.196C282.187,325.659 270.462,337.383 256,337.383ZM266.9,228.789L245.101,228.789C239.59,241.559 230.343,252.131 218.875,259.326C228.284,269 241.44,275.009 256,275.009C270.56,275.009 283.716,268.999 293.125,259.327C281.658,252.131 272.411,241.56 266.9,228.789ZM346.872,167.166C352.963,170.554 358.757,174.53 364.156,179.069C396.717,206.44 410.882,250.554 399.818,292.222C393.986,314.188 381.423,334.387 362.937,349.442C364.856,348.756 366.718,348.083 368.511,347.435C373.213,345.735 377.464,344.198 381.295,342.956C385.364,341.636 389.33,341.049 393.214,341.045C403.558,327.624 410.985,312.366 415.256,296.285C427.9,248.668 411.701,198.233 374.407,166.882C367.973,161.473 361.068,156.765 353.814,152.791C357.228,151.214 359.15,147.387 358.205,143.604C357.135,139.324 352.798,136.722 348.518,137.792L327.297,143.113C322.094,144.414 319.67,150.372 322.353,154.924L332.423,173.91C334.477,177.81 339.304,179.307 343.204,177.254C346.876,175.318 348.417,170.928 346.872,167.166Z" style="fill:white;"/>
    </g>
</svg>
