<?xml version="1.0" encoding="UTF-8" standalone="no"?>
<!DOCTYPE svg PUBLIC "-//W3C//DTD SVG 1.1//EN" "http://www.w3.org/Graphics/SVG/1.1/DTD/svg11.dtd">
<svg width="100%" height="100%" viewBox="0 0 834 834" version="1.1" xmlns="http://www.w3.org/2000/svg" xmlns:xlink="http://www.w3.org/1999/xlink" xml:space="preserve" xmlns:serif="http://www.serif.com/" style="fill-rule:evenodd;clip-rule:evenodd;stroke-linejoin:round;stroke-miterlimit:2;">
    <g transform="matrix(2.9163,0,0,2.9163,-267.28,-1425.92)">
        <clipPath id="_clip1">
            <rect x="91.459" y="491.138" width="285.75" height="281.25"/>
        </clipPath>
        <g clip-path="url(#_clip1)">
            <g transform="matrix(0.567272,0,0,-0.567272,91.5729,649.708)">
                <path d="M217.14,0C293.851,0 356.26,62.701 356.26,139.77C356.26,216.834 293.851,279.53 217.14,279.53C140.429,279.53 78.02,216.834 78.02,139.77C78.02,62.701 140.429,0 217.14,0ZM239.942,214.654C256.169,225.285 279.268,224.386 294.87,212.515C305.694,204.288 312.107,191.29 313.932,173.866C315.932,154.626 307.678,133.389 290.058,112.452C272.905,92.069 247.722,72.867 217.14,56.838C186.558,72.867 161.374,92.069 144.222,112.452C126.603,133.389 118.348,154.625 120.351,173.882C122.174,191.29 128.583,204.288 139.401,212.515C147.732,218.849 158.196,222.059 168.613,222.059C177.712,222.059 186.774,219.609 194.339,214.653C206.083,206.964 211.286,195.365 213.342,189.135C213.883,187.496 215.414,186.389 217.14,186.389C218.866,186.389 220.397,187.496 220.938,189.135C222.995,195.366 228.198,206.965 239.942,214.654Z" style="fill:white;fill-rule:nonzero;"/>
            </g>
            <g transform="matrix(0.567272,0,0,-0.567272,91.5729,799.371)">
                <path d="M502.179,495.144C500.999,495.91 499.505,496 498.241,495.382L409.701,452.052C408.409,451.42 407.556,450.143 407.467,448.708C407.378,447.272 408.066,445.899 409.269,445.112L436.057,427.585L319.891,250.619L114.42,250.619C112.978,250.619 111.648,249.843 110.938,248.588L0.518,53.328C-0.182,52.09 -0.172,50.573 0.545,49.344C1.262,48.115 2.577,47.359 4,47.359L42.85,47.359C44.292,47.359 45.622,48.135 46.332,49.39L136.413,208.679L340.24,208.679C341.588,208.679 342.844,209.357 343.584,210.484L471.073,404.686L494.201,389.561C495.408,388.771 496.948,388.692 498.228,389.356C499.509,390.019 500.334,391.32 500.387,392.762L503.997,491.642C504.049,493.048 503.358,494.378 502.179,495.144Z" style="fill:white;fill-rule:nonzero;"/>
            </g>
        </g>
    </g>
</svg>
