<?xml version="1.0" encoding="UTF-8" standalone="no"?>
<!DOCTYPE svg PUBLIC "-//W3C//DTD SVG 1.1//EN" "http://www.w3.org/Graphics/SVG/1.1/DTD/svg11.dtd">
<svg width="100%" height="100%" viewBox="0 0 466 466" version="1.1" xmlns="http://www.w3.org/2000/svg" xmlns:xlink="http://www.w3.org/1999/xlink" xml:space="preserve" xmlns:serif="http://www.serif.com/" style="fill-rule:evenodd;clip-rule:evenodd;stroke-linejoin:round;stroke-miterlimit:2;">
    <g transform="matrix(1,0,0,1,-4343.48,-1342.44)">
        <g transform="matrix(0.909424,0,0,-0.909424,4343.38,1873.44)">
            <path d="M182.984,336C170.137,336 159.111,328.348 154.022,317.401C149.616,321.056 144.903,324.406 139.672,327.109C135.742,329.148 130.914,327.602 128.891,323.676C126.867,319.754 128.398,314.926 132.328,312.898C153.703,301.848 166.984,280.047 166.984,256C166.984,251.582 170.562,248 174.984,248C179.406,248 182.984,251.582 182.984,256C182.984,273.675 177.119,290.292 166.956,303.863C166.957,303.911 166.984,303.951 166.984,304C166.984,312.824 174.164,320 182.984,320C187.406,320 190.984,323.582 190.984,328C190.984,332.418 187.406,336 182.984,336Z" style="fill:white;fill-rule:nonzero;"/>
        </g>
        <g transform="matrix(0.909424,0,0,-0.909424,4343.38,1807.96)">
            <path d="M480,288C465.13,288 452.713,277.762 449.136,264L264,264L264,328L352,328C355.031,328 357.797,329.711 359.156,332.422L372.945,360L401.136,360C404.713,346.238 417.13,336 432,336C449.648,336 464,350.355 464,368C464,385.645 449.648,400 432,400C417.13,400 404.713,389.762 401.136,376L368,376C364.969,376 362.203,374.289 360.844,371.578L347.055,344L264,344L264,400L336,400C338.867,400 341.523,401.539 342.945,404.031L369.994,451.367C374.242,449.279 378.955,448 384,448C401.648,448 416,462.355 416,480C416,497.645 401.648,512 384,512C366.351,512 352,497.645 352,480C352,473.303 354.083,467.093 357.614,461.948L331.359,416L264,416L264,504C264,508.418 260.422,512 256,512C232.211,512 210.797,499.023 199.703,478.414C194.5,479.469 189.242,480 184,480C148.539,480 118.008,457.23 107.68,423.883C65.562,421.633 32,386.664 32,344C32,336.633 33.039,329.313 35.094,322.156C13.297,307.34 -0,282.559 -0,256C-0,229.441 13.297,204.66 35.094,189.844C33.039,182.688 32,175.367 32,168C32,125.336 65.562,90.367 107.68,88.117C118.008,54.77 148.539,32 184,32C189.242,32 194.5,32.531 199.703,33.586C210.797,12.977 232.211,0 256,0C260.422,0 264,3.582 264,8L264,96L331.359,96L357.614,50.052C354.083,44.907 352,38.697 352,32C352,14.355 366.352,0 384,0C401.648,0 416,14.355 416,32C416,49.645 401.648,64 384,64C378.955,64 374.242,62.721 369.994,60.633L342.945,107.969C341.523,110.461 338.867,112 336,112L264,112L264,168L347.055,168L360.844,140.422C362.203,137.711 364.969,136 368,136L401.136,136C404.713,122.238 417.13,112 432,112C449.648,112 464,126.355 464,144C464,161.645 449.648,176 432,176C417.13,176 404.713,165.762 401.136,152L372.945,152L359.156,179.578C357.797,182.289 355.031,184 352,184L264,184L264,248L449.136,248C452.713,234.238 465.13,224 480,224C497.648,224 512,238.355 512,256C512,273.645 497.648,288 480,288ZM432,384C440.82,384 448,376.824 448,368C448,359.176 440.82,352 432,352C423.18,352 416,359.176 416,368C416,376.824 423.18,384 432,384ZM384,496C392.82,496 400,488.824 400,480C400,471.176 392.82,464 384,464C375.18,464 368,471.176 368,480C368,488.824 375.18,496 384,496ZM400,32C400,23.176 392.82,16 384,16C375.18,16 368,23.176 368,32C368,40.824 375.18,48 384,48C392.82,48 400,40.824 400,32ZM432,160C440.82,160 448,152.824 448,144C448,135.176 440.82,128 432,128C423.18,128 416,135.176 416,144C416,152.824 423.18,160 432,160ZM211.547,45.926C210.297,49.004 207.32,50.91 204.141,50.91C203.398,50.91 202.648,50.809 201.906,50.59C196,48.871 189.976,48 184,48C153.906,48 128.25,68.5 121.625,97.855C121.606,97.937 121.554,98.001 121.533,98.082C120.524,102.628 120,107.307 120,112C120,124.727 123.727,137.02 130.773,147.551C133.234,151.223 132.25,156.191 128.578,158.648C124.914,161.102 119.937,160.117 117.477,156.449C108.664,143.277 104,127.91 104,112C104,109.49 104.184,106.987 104.416,104.492C72.695,108.261 48,135.281 48,168C48,175.6 49.397,183.157 52.14,190.461C56.819,202.887 65.361,213.801 76.453,221.227C80.125,223.684 81.109,228.656 78.648,232.324C76.18,236.004 71.211,236.98 67.547,234.523C56.468,227.105 47.397,216.904 41.206,205.177C25.484,217.196 16,235.96 16,256C16,279.016 28.492,300.367 48.602,311.727C49.018,311.961 50.339,312.73 50.656,312.895C59.781,317.609 69.656,320 80,320C99.414,320 117.562,311.336 129.781,296.227C131.359,294.273 133.672,293.258 136.008,293.258C137.773,293.258 139.547,293.84 141.031,295.039C144.469,297.816 145,302.855 142.219,306.289C126.945,325.172 104.266,336 80,336C69.589,336 59.26,333.846 49.673,329.924C48.604,334.569 48,339.272 48,344C48,376.598 72.511,403.528 104.412,407.434C104.184,404.963 104,402.485 104,400C104,390.852 105.531,381.879 108.562,373.328C109.719,370.043 112.805,367.992 116.102,367.992C116.984,367.992 117.891,368.141 118.773,368.453C122.937,369.93 125.117,374.5 123.641,378.664C121.227,385.496 120,392.676 120,400C120,404.695 120.525,409.375 121.534,413.923C121.554,414.002 121.606,414.064 121.625,414.145C128.25,443.5 153.906,464 184,464C189.7,464 195.436,463.154 201.079,461.59C209.466,459.261 217.429,455.277 224.226,449.785C225.711,448.586 227.484,448.004 229.25,448.004C231.586,448.004 233.898,449.02 235.476,450.973C238.258,454.406 237.726,459.445 234.289,462.223C228.573,466.846 222.16,470.552 215.411,473.446C222.683,485.085 234.469,493.074 248,495.336L248,352.556C216.48,356.513 192,383.426 192,416C192,420.418 188.422,424 184,424C179.578,424 176,420.418 176,416C176,406.961 177.577,398.301 180.353,390.191C167.065,386.144 156.752,375.53 153.258,361.996C152.156,357.719 154.734,353.355 159.008,352.254C159.68,352.082 160.352,352 161.016,352C164.578,352 167.828,354.395 168.758,358.004C170.937,366.461 177.539,373.066 185.992,375.246C186.365,375.342 186.643,375.586 186.99,375.729C199.612,354.186 221.954,339.004 248,336.405L248,159.483C230.16,157.231 213.911,147.539 203.476,132.582C200.953,128.957 201.836,123.969 205.461,121.441C206.859,120.469 208.453,120.004 210.031,120.004C212.562,120.004 215.047,121.199 216.601,123.426C224.034,134.083 235.415,141.107 248,143.244L248,16.664C231.758,19.379 217.93,30.266 211.547,45.926ZM480,240C471.18,240 464,247.176 464,256C464,264.824 471.18,272 480,272C488.82,272 496,264.824 496,256C496,247.176 488.82,240 480,240Z" style="fill:white;fill-rule:nonzero;"/>
        </g>
        <g transform="matrix(0.909424,0,0,-0.909424,4343.38,1487.85)">
            <rect x="400" y="72" width="16" height="16" style="fill:white;"/>
        </g>
        <g transform="matrix(0.909424,0,0,-0.909424,4343.38,1487.85)">
            <rect x="432" y="72" width="48" height="16" style="fill:white;"/>
        </g>
        <g transform="matrix(0.909424,0,0,-0.909424,4343.38,1735.21)">
            <rect x="392" y="208" width="16" height="16" style="fill:white;"/>
        </g>
        <g transform="matrix(0.909424,0,0,-0.909424,4343.38,1735.21)">
            <rect x="328" y="208" width="48" height="16" style="fill:white;"/>
        </g>
        <g transform="matrix(0.909424,0,0,-0.909424,4343.38,2128.08)">
            <rect x="464" y="424" width="16" height="16" style="fill:white;"/>
        </g>
        <g transform="matrix(0.909424,0,0,-0.909424,4343.38,2128.08)">
            <rect x="400" y="424" width="48" height="16" style="fill:white;"/>
        </g>
        <g transform="matrix(0.909424,0,0,-0.909424,4343.38,1880.72)">
            <rect x="328" y="288" width="16" height="16" style="fill:white;"/>
        </g>
        <g transform="matrix(0.909424,0,0,-0.909424,4343.38,1880.72)">
            <rect x="360" y="288" width="48" height="16" style="fill:white;"/>
        </g>
    </g>
</svg>
