<?xml version="1.0" encoding="UTF-8" standalone="no"?>
<!DOCTYPE svg PUBLIC "-//W3C//DTD SVG 1.1//EN" "http://www.w3.org/Graphics/SVG/1.1/DTD/svg11.dtd">
<svg width="100%" height="100%" viewBox="0 0 645 379" version="1.1" xmlns="http://www.w3.org/2000/svg" xmlns:xlink="http://www.w3.org/1999/xlink" xml:space="preserve" xmlns:serif="http://www.serif.com/" style="fill-rule:evenodd;clip-rule:evenodd;stroke-linejoin:round;stroke-miterlimit:2;">
    <g transform="matrix(7.68176,0,0,-7.68176,-53.1663,616.472)">
        <path d="M15.117,80.252C10.601,80.252 6.93,76.578 6.93,72.063L6.93,57.441C6.93,52.925 10.602,49.252 15.117,49.252L47.93,49.252C48.483,49.252 48.93,49.7 48.93,50.252C48.93,50.804 48.483,51.252 47.93,51.252L15.117,51.252C11.705,51.252 8.93,54.028 8.93,57.441L8.93,72.063C8.93,75.476 11.705,78.252 15.117,78.252L76.93,78.252C77.483,78.252 77.93,78.7 77.93,79.252C77.93,79.804 77.483,80.252 76.93,80.252L15.117,80.252ZM66.813,71.24C66.717,71.229 66.622,71.204 66.531,71.164C66.166,71.005 65.93,70.646 65.93,70.248L65.93,38.695C65.93,38.295 66.166,37.933 66.533,37.775C66.9,37.617 67.327,37.696 67.617,37.971L74.422,44.439L79.971,31.604C80.077,31.358 80.278,31.165 80.529,31.068C80.644,31.024 80.767,31 80.889,31C81.031,31 81.171,31.032 81.303,31.092L85.51,33.004C86.012,33.232 86.236,33.821 86.008,34.324L80.277,46.998L89.963,47.832C90.357,47.866 90.693,48.13 90.822,48.504C90.952,48.878 90.849,49.292 90.561,49.563L67.611,70.979C67.392,71.183 67.099,71.274 66.813,71.24ZM51.014,71.129L46.645,60.002L48.311,60.002L52.693,71.129L51.014,71.129ZM56.98,71.129L52.611,60.002L54.277,60.002L58.66,71.129L56.98,71.129ZM17.93,70.264L17.93,61.076L19.531,61.076L19.531,64.385C19.531,65.356 20.188,66.156 21.133,66.156C21.987,66.156 22.602,65.658 22.602,64.477L22.602,61.076L24.203,61.076L24.203,64.49C24.203,66.392 23.39,67.639 21.553,67.639C20.819,67.639 20.109,67.416 19.531,66.668L19.531,70.264L17.93,70.264ZM27.809,69.369L26.207,69.199L26.207,67.531L25,67.531L25,66.154L26.207,66.154L26.207,63.359C26.206,61.746 27.124,60.945 28.529,60.998C29.014,61.011 29.396,61.09 29.855,61.273L29.408,62.639C29.172,62.521 28.885,62.441 28.635,62.441C28.137,62.441 27.795,62.743 27.795,63.359L27.795,66.154L29.594,66.154L29.594,67.531L27.809,67.531L27.809,69.369ZM33.043,69.369L31.441,69.199L31.441,67.531L30.234,67.531L30.234,66.154L31.441,66.154L31.441,63.359C31.441,61.746 32.36,60.945 33.764,60.998C34.249,61.011 34.631,61.09 35.09,61.273L34.643,62.639C34.407,62.521 34.119,62.441 33.869,62.441C33.371,62.441 33.029,62.743 33.029,63.359L33.029,66.154L34.826,66.154L34.826,67.531L33.043,67.531L33.043,69.369ZM39.721,67.691C38.984,67.69 38.118,67.376 37.619,66.654L37.516,67.547L36.02,67.547L36.02,58.375L37.621,58.375L37.621,61.84C38.08,61.132 39.091,60.922 39.773,60.922C41.846,60.922 43.041,62.418 43.041,64.307C43.041,66.21 41.715,67.691 39.721,67.691ZM68.273,67.625L87.551,49.633L78.699,48.869C78.376,48.841 78.088,48.661 77.924,48.381C77.76,48.101 77.741,47.759 77.875,47.463L83.773,34.412L81.402,33.334L75.688,46.551C75.558,46.851 75.292,47.068 74.971,47.133C74.905,47.146 74.836,47.152 74.77,47.152C74.516,47.152 74.267,47.057 74.08,46.879L67.93,41.027L67.93,65.939L70.33,60.553C70.413,60.367 70.596,60.256 70.787,60.256C70.855,60.256 70.925,60.27 70.99,60.299C71.243,60.411 71.356,60.707 71.244,60.959L68.273,67.625ZM45.215,66.635C44.749,66.635 44.283,66.325 44.283,65.709C44.283,64.489 46.146,64.489 46.146,65.709C46.146,66.325 45.681,66.635 45.215,66.635ZM39.602,66.143C40.756,66.143 41.438,65.317 41.438,64.307C41.438,63.297 40.691,62.469 39.602,62.469C38.513,62.469 37.764,63.297 37.764,64.307C37.764,65.318 38.447,66.143 39.602,66.143ZM45.215,62.83C44.749,62.83 44.283,62.521 44.283,61.904C44.283,60.684 46.146,60.684 46.146,61.904C46.146,62.521 45.681,62.83 45.215,62.83ZM71.357,59.549C71.293,59.548 71.227,59.535 71.164,59.508C70.91,59.399 70.791,59.105 70.9,58.852L71.096,58.396C71.178,58.206 71.364,58.094 71.557,58.094C71.623,58.094 71.69,58.107 71.754,58.135C72.008,58.244 72.124,58.536 72.016,58.789L71.82,59.246C71.738,59.437 71.552,59.55 71.357,59.549Z" style="fill:white;fill-rule:nonzero;"/>
    </g>
</svg>
